<svg xmlns="http://www.w3.org/2000/svg" xmlns:xlink="http://www.w3.org/1999/xlink" version="1.1" x="0px" y="0px" viewBox="0 0 52 65" style="enable-background:new 0 0 52 52;" xml:space="preserve"><path d="M36.9,44.1c0.2-0.4,0.3-0.8,0.3-1.3c0-0.2,0-0.3,0-0.5c-0.3-1.8-2-3-3.8-2.7l-6.1,1c-1.7,0.3-3.4-0.6-4.1-2.1  c1.1-1.1,1.8-2.6,1.8-4.2l10.3-2.6c0.5-0.1,0.8-0.7,0.7-1.2c-0.1-0.5-0.7-0.9-1.2-0.7l-10.2,2.6c-0.5-1.5-1.6-2.7-3.1-3.3l-1.1-6.8  c-0.2-1,0.1-2,0.7-2.9c0.6-0.8,1.5-1.4,2.5-1.5l0.1,0l0.6,3.8c0,0,0,0,0,0l0,0.1c0,0,0,0,0,0c0,0,0,0.1,0,0.1l1.2,3.6  c0.1,0.4,0.5,0.7,1,0.7c0.1,0,0.1,0,0.2,0l4.9-0.8c0.5-0.1,0.9-0.5,0.8-1l-0.1-3.8v0c0,0,0,0,0,0c0,0,0-0.1,0-0.1L30.1,7.2  c0-0.3-0.2-0.5-0.4-0.6c-0.2-0.2-0.5-0.2-0.7-0.2l-0.3,0l-0.4-2.2L29.6,4c0.5-0.1,0.9-0.6,0.8-1.1c-0.1-0.5-0.6-0.9-1.1-0.8  l-2.3,0.4l-3.4,0.5l-2.3,0.4c-0.6,0.1-0.9,0.6-0.8,1.1c0.1,0.5,0.5,0.8,1,0.8c0.1,0,0.1,0,0.2,0l1.3-0.2l0.3,2.2l-0.3,0  c-0.5,0.1-0.9,0.6-0.8,1.2l0.4,2.7l0,0c-2.8,0.4-5.2,1.9-6.8,4.2c-1.6,2.3-2.3,5-1.8,7.8l1.1,7c-1.3,1.3-1.9,3.2-1.6,5  c0.3,1.8,1.5,3.4,3.1,4.3c0.5,1.8,1.4,3.4,2.6,4.6h-3.5c-1.7,0-3,1.3-3,3c0,1.7,1.3,3,3,3h20.7c1.7,0,3-1.3,3-3  C39.3,45.5,38.3,44.3,36.9,44.1z M26.3,4.5l0.4,2.2L25.2,7l-0.4-2.2L26.3,4.5z"/></svg>
