<svg xmlns:dc="http://purl.org/dc/elements/1.1/" xmlns:cc="http://creativecommons.org/ns#" xmlns:rdf="http://www.w3.org/1999/02/22-rdf-syntax-ns#" xmlns:svg="http://www.w3.org/2000/svg" xmlns="http://www.w3.org/2000/svg" xmlns:sodipodi="http://sodipodi.sourceforge.net/DTD/sodipodi-0.dtd" xmlns:inkscape="http://www.inkscape.org/namespaces/inkscape" viewBox="0 0 32 40.00000125" version="1.1" x="0px" y="0px"><g transform="translate(0,-1020.3622)"><path style="color:#000000;font-style:normal;font-variant:normal;font-weight:normal;font-stretch:normal;font-size:medium;line-height:normal;font-family:sans-serif;text-indent:0;text-align:start;text-decoration:none;text-decoration-line:none;text-decoration-style:solid;text-decoration-color:#000000;letter-spacing:normal;word-spacing:normal;text-transform:none;direction:ltr;block-progression:tb;writing-mode:lr-tb;baseline-shift:baseline;text-anchor:start;white-space:normal;clip-rule:nonzero;display:inline;overflow:visible;visibility:visible;opacity:1;isolation:auto;mix-blend-mode:normal;color-interpolation:sRGB;color-interpolation-filters:linearRGB;solid-color:#000000;solid-opacity:1;fill:#000000;fill-opacity:1;fill-rule:evenodd;stroke:none;stroke-width:1px;stroke-linecap:butt;stroke-linejoin:round;stroke-miterlimit:4;stroke-dasharray:none;stroke-dashoffset:0;stroke-opacity:1;color-rendering:auto;image-rendering:auto;shape-rendering:auto;text-rendering:auto;enable-background:accumulate" d="m 20.080078,1027.875 c -1.110248,-0.1566 -2.308459,0.031 -3.30664,0.5742 -0.778111,0.4236 -1.293004,1.0897 -1.75586,1.7246 -0.462856,0.6349 -0.881216,1.2462 -1.388672,1.6543 -0.850759,0.6843 -1.725852,1.3367 -2.65625,1.5684 -0.893601,0.2225 -2.4738258,0.1775 -3.785156,0.051 -1.3113302,-0.1268 -2.3691406,-0.3164 -2.3691406,-0.3164 a 0.50005,0.50005 0 0 0 -0.5839844,0.5586 c 0,0 0.097287,0.715 0.2675781,1.5898 0.1702916,0.8748 0.4015484,1.8999 0.7363281,2.623 0.7526922,1.6259 1.7754115,3.2662 3.2578126,4.4043 1.6788122,1.2889 3.7890752,2.1986 5.9355472,2.3223 2.093461,0.1207 4.258657,-0.4997 6.02539,-1.5898 1.549963,-0.9565 2.695229,-2.4643 3.541016,-3.9942 0.826835,-1.4955 1.500074,-3.2324 1.46875,-5.0234 -0.02558,-1.4486 -0.405387,-3.0496 -1.419922,-4.2051 -1.008021,-1.148 -2.535261,-1.7395 -3.966797,-1.9414 z m -0.140625,0.9902 c 1.255264,0.1771 2.575043,0.7203 3.357422,1.6114 0.786465,0.8957 1.147304,2.2818 1.169922,3.5625 0.02668,1.5252 -0.565785,3.1143 -1.34375,4.5214 -0.794213,1.4366 -1.856769,2.8034 -3.191406,3.627 -1.598267,0.9862 -3.589221,1.5503 -5.44336,1.4434 -1.899928,-0.1095 -3.846625,-0.9379 -5.3828122,-2.1172 -1.287799,-0.9887 -2.2444765,-2.4879 -2.9589844,-4.0313 -0.2507203,-0.5416 -0.4998291,-1.5508 -0.6640625,-2.3945 -0.09426,-0.4842 -0.1034565,-0.598 -0.1464844,-0.8789 0.3962542,0.065 0.7843569,0.1405 1.7558594,0.2344 1.3552198,0.1309 2.9568481,0.2142 4.1230471,-0.076 1.204002,-0.2999 2.177775,-1.0655 3.041015,-1.7598 0.668945,-0.538 1.123544,-1.2309 1.570313,-1.8437 0.446769,-0.6129 0.877992,-1.1374 1.425781,-1.4356 0.782418,-0.4259 1.790348,-0.5894 2.6875,-0.4629 z"/><path style="color:#000000;font-style:normal;font-variant:normal;font-weight:normal;font-stretch:normal;font-size:medium;line-height:normal;font-family:sans-serif;text-indent:0;text-align:start;text-decoration:none;text-decoration-line:none;text-decoration-style:solid;text-decoration-color:#000000;letter-spacing:normal;word-spacing:normal;text-transform:none;direction:ltr;block-progression:tb;writing-mode:lr-tb;baseline-shift:baseline;text-anchor:start;white-space:normal;clip-rule:nonzero;display:inline;overflow:visible;visibility:visible;opacity:1;isolation:auto;mix-blend-mode:normal;color-interpolation:sRGB;color-interpolation-filters:linearRGB;solid-color:#000000;solid-opacity:1;fill:#000000;fill-opacity:1;fill-rule:evenodd;stroke:none;stroke-width:1px;stroke-linecap:butt;stroke-linejoin:miter;stroke-miterlimit:4;stroke-dasharray:none;stroke-dashoffset:0;stroke-opacity:1;color-rendering:auto;image-rendering:auto;shape-rendering:auto;text-rendering:auto;enable-background:accumulate" d="m 20.591797,1030.7285 c -0.285334,-0.01 -0.570831,0.066 -0.828125,0.2149 -0.49514,0.2861 -0.728853,0.7994 -0.712891,1.3281 0.01324,0.4783 0.261377,0.8774 0.660157,1.1172 0.435214,0.2614 0.960606,0.2998 1.429687,0.062 0.452199,-0.2289 0.691689,-0.6539 0.751953,-1.1055 0.0597,-0.4461 -0.01773,-0.9762 -0.480469,-1.3242 -0.251131,-0.1889 -0.534979,-0.2837 -0.820312,-0.293 z m -0.328125,1.082 c 0.156146,-0.095 0.406787,-0.1053 0.548828,0.01 0.104217,0.085 0.111693,0.2601 0.08984,0.3926 -0.02203,0.1335 -0.093,0.2829 -0.212891,0.3457 -0.136886,0.072 -0.357305,0.038 -0.462891,-0.025 -0.0683,-0.041 -0.170683,-0.1764 -0.175781,-0.2891 -0.0073,-0.161 0.07533,-0.3502 0.212895,-0.4342 z"/><path style="color:#000000;font-style:normal;font-variant:normal;font-weight:normal;font-stretch:normal;font-size:medium;line-height:normal;font-family:sans-serif;text-indent:0;text-align:start;text-decoration:none;text-decoration-line:none;text-decoration-style:solid;text-decoration-color:#000000;letter-spacing:normal;word-spacing:normal;text-transform:none;direction:ltr;block-progression:tb;writing-mode:lr-tb;baseline-shift:baseline;text-anchor:start;white-space:normal;clip-rule:nonzero;display:inline;overflow:visible;visibility:visible;opacity:1;isolation:auto;mix-blend-mode:normal;color-interpolation:sRGB;color-interpolation-filters:linearRGB;solid-color:#000000;solid-opacity:1;fill:#000000;fill-opacity:1;fill-rule:evenodd;stroke:none;stroke-width:1px;stroke-linecap:butt;stroke-linejoin:round;stroke-miterlimit:4;stroke-dasharray:none;stroke-dashoffset:0;stroke-opacity:1;color-rendering:auto;image-rendering:auto;shape-rendering:auto;text-rendering:auto;enable-background:accumulate" d="m 24.671875,1030.9023 -0.316406,0.9473 1.785156,0.5938 -1.423828,0.9492 0.554687,0.832 2.275391,-1.5176 a 0.50005,0.50005 0 0 0 -0.119141,-0.8906 l -2.755859,-0.9141 z"/><path style="color:#000000;font-style:normal;font-variant:normal;font-weight:normal;font-stretch:normal;font-size:medium;line-height:normal;font-family:sans-serif;text-indent:0;text-align:start;text-decoration:none;text-decoration-line:none;text-decoration-style:solid;text-decoration-color:#000000;letter-spacing:normal;word-spacing:normal;text-transform:none;direction:ltr;block-progression:tb;writing-mode:lr-tb;baseline-shift:baseline;text-anchor:start;white-space:normal;clip-rule:nonzero;display:inline;overflow:visible;visibility:visible;opacity:1;isolation:auto;mix-blend-mode:normal;color-interpolation:sRGB;color-interpolation-filters:linearRGB;solid-color:#000000;solid-opacity:1;fill:#000000;fill-opacity:1;fill-rule:evenodd;stroke:none;stroke-width:1px;stroke-linecap:round;stroke-linejoin:round;stroke-miterlimit:4;stroke-dasharray:none;stroke-dashoffset:0;stroke-opacity:1;color-rendering:auto;image-rendering:auto;shape-rendering:auto;text-rendering:auto;enable-background:accumulate" d="m 19.332031,1036.0996 a 0.50005,0.50005 0 0 0 -0.511719,0.4316 c 0,0 -0.156277,0.9332 -0.265624,1.2442 -0.198797,0.5653 -0.404578,1.0948 -0.71875,1.4629 -0.50734,0.5945 -1.196828,1.0818 -1.927735,1.3789 -0.565166,0.2293 -1.219178,0.3196 -1.84375,0.2773 -0.24547,-0.017 -0.752761,-0.1541 -1.158203,-0.2929 -0.405442,-0.1389 -0.724609,-0.2715 -0.724609,-0.2715 a 0.50005,0.50005 0 1 0 -0.382813,0.9238 c 0,0 0.345295,0.143 0.783203,0.293 0.437909,0.1499 0.952133,0.3142 1.414063,0.3457 0.765628,0.052 1.563228,-0.055 2.289062,-0.3496 0.878693,-0.3572 1.690087,-0.9292 2.310547,-1.6563 0.470627,-0.5513 0.700141,-1.2042 0.902344,-1.7793 0.192453,-0.5474 0.310547,-1.4258 0.310547,-1.4258 a 0.50005,0.50005 0 0 0 -0.476563,-0.582 z"/><path style="color:#000000;font-style:normal;font-variant:normal;font-weight:normal;font-stretch:normal;font-size:medium;line-height:normal;font-family:sans-serif;text-indent:0;text-align:start;text-decoration:none;text-decoration-line:none;text-decoration-style:solid;text-decoration-color:#000000;letter-spacing:normal;word-spacing:normal;text-transform:none;direction:ltr;block-progression:tb;writing-mode:lr-tb;baseline-shift:baseline;text-anchor:start;white-space:normal;clip-rule:nonzero;display:inline;overflow:visible;visibility:visible;opacity:1;isolation:auto;mix-blend-mode:normal;color-interpolation:sRGB;color-interpolation-filters:linearRGB;solid-color:#000000;solid-opacity:1;fill:#000000;fill-opacity:1;fill-rule:evenodd;stroke:none;stroke-width:1px;stroke-linecap:round;stroke-linejoin:round;stroke-miterlimit:4;stroke-dasharray:none;stroke-dashoffset:0;stroke-opacity:1;color-rendering:auto;image-rendering:auto;shape-rendering:auto;text-rendering:auto;enable-background:accumulate" d="m 18.212891,1025.8223 a 0.50005,0.50005 0 0 0 0.01367,0.998 c 0.03256,0 0.204526,0.034 0.34961,0.096 0.145084,0.062 0.270032,0.1589 0.298828,0.1973 0.111006,0.1479 0.158168,0.5793 0.113281,0.914 a 0.50052458,0.50052458 0 1 0 0.992188,0.1329 c 0.06131,-0.4573 0.103506,-1.1025 -0.304688,-1.6465 -0.199604,-0.2661 -0.45969,-0.4123 -0.707031,-0.5176 -0.247341,-0.1054 -0.474535,-0.1651 -0.705078,-0.1738 a 0.50005,0.50005 0 0 0 -0.05078,0 z"/><path style="color:#000000;font-style:normal;font-variant:normal;font-weight:normal;font-stretch:normal;font-size:medium;line-height:normal;font-family:sans-serif;text-indent:0;text-align:start;text-decoration:none;text-decoration-line:none;text-decoration-style:solid;text-decoration-color:#000000;letter-spacing:normal;word-spacing:normal;text-transform:none;direction:ltr;block-progression:tb;writing-mode:lr-tb;baseline-shift:baseline;text-anchor:start;white-space:normal;clip-rule:nonzero;display:inline;overflow:visible;visibility:visible;opacity:1;isolation:auto;mix-blend-mode:normal;color-interpolation:sRGB;color-interpolation-filters:linearRGB;solid-color:#000000;solid-opacity:1;fill:#000000;fill-opacity:1;fill-rule:evenodd;stroke:none;stroke-width:1px;stroke-linecap:round;stroke-linejoin:round;stroke-miterlimit:4;stroke-dasharray:none;stroke-dashoffset:0;stroke-opacity:1;color-rendering:auto;image-rendering:auto;shape-rendering:auto;text-rendering:auto;enable-background:accumulate" d="m 21.109375,1025.9727 c -0.233971,-0.026 -0.466647,0 -0.726563,0.074 -0.259915,0.07 -0.537328,0.179 -0.771484,0.414 -0.479995,0.4821 -0.528364,1.1287 -0.53125,1.5899 a 0.50005,0.50005 0 1 0 1,0.01 c 0.0021,-0.3377 0.10983,-0.7596 0.240234,-0.8906 0.03434,-0.034 0.172235,-0.1111 0.324219,-0.1523 0.151985,-0.041 0.32774,-0.05 0.355469,-0.047 a 0.50005,0.50005 0 1 0 0.109375,-0.9941 z"/><path style="color:#000000;font-style:normal;font-variant:normal;font-weight:normal;font-stretch:normal;font-size:medium;line-height:normal;font-family:sans-serif;text-indent:0;text-align:start;text-decoration:none;text-decoration-line:none;text-decoration-style:solid;text-decoration-color:#000000;letter-spacing:normal;word-spacing:normal;text-transform:none;direction:ltr;block-progression:tb;writing-mode:lr-tb;baseline-shift:baseline;text-anchor:start;white-space:normal;clip-rule:nonzero;display:inline;overflow:visible;visibility:visible;opacity:1;isolation:auto;mix-blend-mode:normal;color-interpolation:sRGB;color-interpolation-filters:linearRGB;solid-color:#000000;solid-opacity:1;fill:#000000;fill-opacity:1;fill-rule:evenodd;stroke:none;stroke-width:1px;stroke-linecap:round;stroke-linejoin:round;stroke-miterlimit:4;stroke-dasharray:none;stroke-dashoffset:0;stroke-opacity:1;color-rendering:auto;image-rendering:auto;shape-rendering:auto;text-rendering:auto;enable-background:accumulate" d="m 16.169922,1045.7988 -2.865234,0.1055 a 0.50005,0.50005 0 1 0 0.03711,0.998 l 2.865234,-0.1035 a 0.50034415,0.50034415 0 1 0 -0.03711,-1 z"/><path style="color:#000000;font-style:normal;font-variant:normal;font-weight:normal;font-stretch:normal;font-size:medium;line-height:normal;font-family:sans-serif;text-indent:0;text-align:start;text-decoration:none;text-decoration-line:none;text-decoration-style:solid;text-decoration-color:#000000;letter-spacing:normal;word-spacing:normal;text-transform:none;direction:ltr;block-progression:tb;writing-mode:lr-tb;baseline-shift:baseline;text-anchor:start;white-space:normal;clip-rule:nonzero;display:inline;overflow:visible;visibility:visible;opacity:1;isolation:auto;mix-blend-mode:normal;color-interpolation:sRGB;color-interpolation-filters:linearRGB;solid-color:#000000;solid-opacity:1;fill:#000000;fill-opacity:1;fill-rule:evenodd;stroke:none;stroke-width:1px;stroke-linecap:butt;stroke-linejoin:miter;stroke-miterlimit:4;stroke-dasharray:none;stroke-dashoffset:0;stroke-opacity:1;color-rendering:auto;image-rendering:auto;shape-rendering:auto;text-rendering:auto;enable-background:accumulate" d="m 14.056641,1044.209 -0.183594,1.8574 0.994141,0.098 0.183593,-1.8575 -0.99414,-0.098 z"/><path style="color:#000000;font-style:normal;font-variant:normal;font-weight:normal;font-stretch:normal;font-size:medium;line-height:normal;font-family:sans-serif;text-indent:0;text-align:start;text-decoration:none;text-decoration-line:none;text-decoration-style:solid;text-decoration-color:#000000;letter-spacing:normal;word-spacing:normal;text-transform:none;direction:ltr;block-progression:tb;writing-mode:lr-tb;baseline-shift:baseline;text-anchor:start;white-space:normal;clip-rule:nonzero;display:inline;overflow:visible;visibility:visible;opacity:1;isolation:auto;mix-blend-mode:normal;color-interpolation:sRGB;color-interpolation-filters:linearRGB;solid-color:#000000;solid-opacity:1;fill:#000000;fill-opacity:1;fill-rule:evenodd;stroke:none;stroke-width:0.5;stroke-linecap:round;stroke-linejoin:round;stroke-miterlimit:4;stroke-dasharray:none;stroke-dashoffset:0;stroke-opacity:1;color-rendering:auto;image-rendering:auto;shape-rendering:auto;text-rendering:auto;enable-background:accumulate" d="m 7.828125,1034.8887 a 0.250025,0.250025 0 0 0 -0.1113281,0.033 l -2.2578125,1.2578 a 0.25050493,0.25050493 0 1 0 0.2441406,0.4375 l 2.2558594,-1.2578 a 0.250025,0.250025 0 0 0 -0.1308594,-0.4707 z"/><path style="color:#000000;font-style:normal;font-variant:normal;font-weight:normal;font-stretch:normal;font-size:medium;line-height:normal;font-family:sans-serif;text-indent:0;text-align:start;text-decoration:none;text-decoration-line:none;text-decoration-style:solid;text-decoration-color:#000000;letter-spacing:normal;word-spacing:normal;text-transform:none;direction:ltr;block-progression:tb;writing-mode:lr-tb;baseline-shift:baseline;text-anchor:start;white-space:normal;clip-rule:nonzero;display:inline;overflow:visible;visibility:visible;opacity:1;isolation:auto;mix-blend-mode:normal;color-interpolation:sRGB;color-interpolation-filters:linearRGB;solid-color:#000000;solid-opacity:1;fill:#000000;fill-opacity:1;fill-rule:evenodd;stroke:none;stroke-width:0.5;stroke-linecap:round;stroke-linejoin:round;stroke-miterlimit:4;stroke-dasharray:none;stroke-dashoffset:0;stroke-opacity:1;color-rendering:auto;image-rendering:auto;shape-rendering:auto;text-rendering:auto;enable-background:accumulate" d="m 8.4472656,1035.5547 a 0.250025,0.250025 0 0 0 -0.109375,0.037 l -2.4414062,1.4805 a 0.250025,0.250025 0 1 0 0.2578125,0.4277 l 2.4414062,-1.4805 a 0.250025,0.250025 0 0 0 -0.1484375,-0.4648 z"/><path style="color:#000000;font-style:normal;font-variant:normal;font-weight:normal;font-stretch:normal;font-size:medium;line-height:normal;font-family:sans-serif;text-indent:0;text-align:start;text-decoration:none;text-decoration-line:none;text-decoration-style:solid;text-decoration-color:#000000;letter-spacing:normal;word-spacing:normal;text-transform:none;direction:ltr;block-progression:tb;writing-mode:lr-tb;baseline-shift:baseline;text-anchor:start;white-space:normal;clip-rule:nonzero;display:inline;overflow:visible;visibility:visible;opacity:1;isolation:auto;mix-blend-mode:normal;color-interpolation:sRGB;color-interpolation-filters:linearRGB;solid-color:#000000;solid-opacity:1;fill:#000000;fill-opacity:1;fill-rule:evenodd;stroke:none;stroke-width:0.5;stroke-linecap:round;stroke-linejoin:round;stroke-miterlimit:4;stroke-dasharray:none;stroke-dashoffset:0;stroke-opacity:1;color-rendering:auto;image-rendering:auto;shape-rendering:auto;text-rendering:auto;enable-background:accumulate" d="m 9.21875,1036.2207 a 0.250025,0.250025 0 0 0 -0.109375,0.041 l -2.7753906,1.7754 a 0.25032313,0.25032313 0 1 0 0.2695312,0.4219 l 2.7753906,-1.7774 A 0.250025,0.250025 0 0 0 9.21875,1036.2207 Z"/><path style="color:#000000;font-style:normal;font-variant:normal;font-weight:normal;font-stretch:normal;font-size:medium;line-height:normal;font-family:sans-serif;text-indent:0;text-align:start;text-decoration:none;text-decoration-line:none;text-decoration-style:solid;text-decoration-color:#000000;letter-spacing:normal;word-spacing:normal;text-transform:none;direction:ltr;block-progression:tb;writing-mode:lr-tb;baseline-shift:baseline;text-anchor:start;white-space:normal;clip-rule:nonzero;display:inline;overflow:visible;visibility:visible;opacity:1;isolation:auto;mix-blend-mode:normal;color-interpolation:sRGB;color-interpolation-filters:linearRGB;solid-color:#000000;solid-opacity:1;fill:#000000;fill-opacity:1;fill-rule:evenodd;stroke:none;stroke-width:0.5;stroke-linecap:round;stroke-linejoin:round;stroke-miterlimit:4;stroke-dasharray:none;stroke-dashoffset:0;stroke-opacity:1;color-rendering:auto;image-rendering:auto;shape-rendering:auto;text-rendering:auto;enable-background:accumulate" d="m 9.5332031,1036.8848 a 0.250025,0.250025 0 0 0 -0.1523437,0.061 l -2.5898438,2.1465 a 0.250025,0.250025 0 1 0 0.3183594,0.3848 l 2.5898438,-2.1465 a 0.250025,0.250025 0 0 0 -0.1660157,-0.4453 z"/><path style="color:#000000;font-style:normal;font-variant:normal;font-weight:normal;font-stretch:normal;font-size:medium;line-height:normal;font-family:sans-serif;text-indent:0;text-align:start;text-decoration:none;text-decoration-line:none;text-decoration-style:solid;text-decoration-color:#000000;letter-spacing:normal;word-spacing:normal;text-transform:none;direction:ltr;block-progression:tb;writing-mode:lr-tb;baseline-shift:baseline;text-anchor:start;white-space:normal;clip-rule:nonzero;display:inline;overflow:visible;visibility:visible;opacity:1;isolation:auto;mix-blend-mode:normal;color-interpolation:sRGB;color-interpolation-filters:linearRGB;solid-color:#000000;solid-opacity:1;fill:#000000;fill-opacity:1;fill-rule:evenodd;stroke:none;stroke-width:0.5;stroke-linecap:round;stroke-linejoin:round;stroke-miterlimit:4;stroke-dasharray:none;stroke-dashoffset:0;stroke-opacity:1;color-rendering:auto;image-rendering:auto;shape-rendering:auto;text-rendering:auto;enable-background:accumulate" d="m 10.097656,1037.8105 a 0.250025,0.250025 0 0 0 -0.1542966,0.055 l -2.5527344,1.959 a 0.250025,0.250025 0 1 0 0.3046875,0.3965 l 2.5527345,-1.959 a 0.250025,0.250025 0 0 0 -0.150391,-0.4512 z"/><path style="color:#000000;font-style:normal;font-variant:normal;font-weight:normal;font-stretch:normal;font-size:medium;line-height:normal;font-family:sans-serif;text-indent:0;text-align:start;text-decoration:none;text-decoration-line:none;text-decoration-style:solid;text-decoration-color:#000000;letter-spacing:normal;word-spacing:normal;text-transform:none;direction:ltr;block-progression:tb;writing-mode:lr-tb;baseline-shift:baseline;text-anchor:start;white-space:normal;clip-rule:nonzero;display:inline;overflow:visible;visibility:visible;opacity:1;isolation:auto;mix-blend-mode:normal;color-interpolation:sRGB;color-interpolation-filters:linearRGB;solid-color:#000000;solid-opacity:1;fill:#000000;fill-opacity:1;fill-rule:evenodd;stroke:none;stroke-width:0.5;stroke-linecap:round;stroke-linejoin:round;stroke-miterlimit:4;stroke-dasharray:none;stroke-dashoffset:0;stroke-opacity:1;color-rendering:auto;image-rendering:auto;shape-rendering:auto;text-rendering:auto;enable-background:accumulate" d="m 10.236328,1038.8477 a 0.250025,0.250025 0 0 0 -0.132812,0.043 l -2.4062504,1.6289 a 0.25029002,0.25029002 0 1 0 0.28125,0.4141 l 2.4042964,-1.6289 a 0.250025,0.250025 0 0 0 -0.146484,-0.457 z"/><path style="color:#000000;font-style:normal;font-variant:normal;font-weight:normal;font-stretch:normal;font-size:medium;line-height:normal;font-family:sans-serif;text-indent:0;text-align:start;text-decoration:none;text-decoration-line:none;text-decoration-style:solid;text-decoration-color:#000000;letter-spacing:normal;word-spacing:normal;text-transform:none;direction:ltr;block-progression:tb;writing-mode:lr-tb;baseline-shift:baseline;text-anchor:start;white-space:normal;clip-rule:nonzero;display:inline;overflow:visible;visibility:visible;opacity:1;isolation:auto;mix-blend-mode:normal;color-interpolation:sRGB;color-interpolation-filters:linearRGB;solid-color:#000000;solid-opacity:1;fill:#000000;fill-opacity:1;fill-rule:evenodd;stroke:none;stroke-width:0.5;stroke-linecap:round;stroke-linejoin:round;stroke-miterlimit:4;stroke-dasharray:none;stroke-dashoffset:0;stroke-opacity:1;color-rendering:auto;image-rendering:auto;shape-rendering:auto;text-rendering:auto;enable-background:accumulate" d="m 10.423828,1039.9004 a 0.250025,0.250025 0 0 0 -0.134766,0.043 l -1.6972651,1.1093 a 0.25058335,0.25058335 0 1 0 0.2734375,0.42 l 1.6972656,-1.1114 a 0.250025,0.250025 0 0 0 -0.138672,-0.4609 z"/></g></svg>
